<svg width="1080" height="1080" viewBox="0 0 1080 1080" fill="none" xmlns="http://www.w3.org/2000/svg">
<circle cx="540" cy="540" r="540" fill="#00C65E"/>
<path fill-rule="evenodd" clip-rule="evenodd" d="M180.746 500.5C171.842 500.5 164.874 492.777 166.193 483.971C193.481 301.744 350.671 162 540.5 162C696.877 162 831.195 256.849 888.89 392.281C892.136 399.903 900.771 403.813 908.516 400.873L955.261 383.127C963.006 380.187 966.923 371.51 963.729 363.866C894.588 198.385 731.183 82 540.5 82C287.277 82 82 287.277 82 540.5V565.5C82 573.784 88.7157 580.5 97 580.5H900.253C909.158 580.5 916.126 588.223 914.807 597.029C887.518 779.256 730.329 919 540.5 919C385.153 919 251.575 825.398 193.259 691.386C189.954 683.79 181.289 679.947 173.567 682.947L126.961 701.053C119.239 704.053 115.389 712.76 118.642 720.379C188.552 884.131 351.065 999 540.5 999C793.723 999 999 793.723 999 540.5V515.5C999 507.216 992.284 500.5 984 500.5H180.746Z" fill="white"/>
<path fill-rule="evenodd" clip-rule="evenodd" d="M540 310C412.975 310 310 412.975 310 540C310 667.025 412.975 770 540 770C596.035 770 647.328 750.006 687.242 716.701C693.602 711.393 703.067 711.592 708.775 717.596L743.225 753.834C748.933 759.838 748.716 769.362 742.444 774.775C688.154 821.622 617.354 850 540 850C368.792 850 230 711.208 230 540C230 368.792 368.792 230 540 230C617.354 230 688.154 258.378 742.444 305.225C748.716 310.638 748.933 320.162 743.225 326.166L708.775 362.404C703.067 368.408 693.602 368.607 687.242 363.299C647.328 329.994 596.035 310 540 310Z" fill="white"/>
</svg>
